<svg width="47" height="47" xmlns="http://www.w3.org/2000/svg" xmlns:xlink="http://www.w3.org/1999/xlink" xml:space="preserve" overflow="hidden"><g transform="translate(-666 -98)"><path d="M700.76 121.5C700.76 122.311 700.103 122.969 699.292 122.969L683.253 122.969 687.6 127.316C688.153 127.91 688.121 128.839 687.527 129.392 686.963 129.918 686.089 129.918 685.525 129.392L678.67 122.538C678.098 121.964 678.098 121.036 678.67 120.462L685.525 113.608C686.118 113.055 687.047 113.088 687.6 113.681 688.126 114.245 688.126 115.12 687.6 115.684L683.253 120.031 699.292 120.031C700.103 120.031 700.76 120.689 700.76 121.5Z" fill="#0d8c60"/><path d="M670.896 121.5C670.896 131.775 679.225 140.104 689.5 140.104 699.775 140.104 708.104 131.775 708.104 121.5 708.104 111.225 699.775 102.896 689.5 102.896 679.225 102.896 670.896 111.225 670.896 121.5ZM673.833 121.5C673.833 112.848 680.848 105.833 689.5 105.833 698.152 105.833 705.167 112.848 705.167 121.5 705.167 130.152 698.152 137.167 689.5 137.167 680.848 137.167 673.833 130.152 673.833 121.5Z" fill="#0d8c60"/></g></svg>